<?xml version="1.0" encoding="UTF-8" standalone="no"?>
<svg
   xmlns:dc="http://purl.org/dc/elements/1.1/"
   xmlns:cc="http://creativecommons.org/ns#"
   xmlns:rdf="http://www.w3.org/1999/02/22-rdf-syntax-ns#"
   xmlns:svg="http://www.w3.org/2000/svg"
   xmlns="http://www.w3.org/2000/svg"
   xmlns:sodipodi="http://sodipodi.sourceforge.net/DTD/sodipodi-0.dtd"
   xmlns:inkscape="http://www.inkscape.org/namespaces/inkscape"
   height="24"
   viewBox="0 0 24 24"
   width="24"
   version="1.1"
   id="svg3767"
   sodipodi:docname="region.svg"
   inkscape:version="0.92.5 (2060ec1f9f, 2020-04-08)">
  <metadata
     id="metadata3773">
    <rdf:RDF>
      <cc:Work
         rdf:about="">
        <dc:format>image/svg+xml</dc:format>
        <dc:type
           rdf:resource="http://purl.org/dc/dcmitype/StillImage" />
      </cc:Work>
    </rdf:RDF>
  </metadata>
  <defs
     id="defs3771" />
  <sodipodi:namedview
     pagecolor="#ffffff"
     bordercolor="#666666"
     borderopacity="1"
     objecttolerance="10"
     gridtolerance="10"
     guidetolerance="10"
     inkscape:pageopacity="0"
     inkscape:pageshadow="2"
     inkscape:window-width="1912"
     inkscape:window-height="2126"
     id="namedview3769"
     showgrid="false"
     inkscape:zoom="51.35363"
     inkscape:cx="15.270227"
     inkscape:cy="10.633885"
     inkscape:window-x="1920"
     inkscape:window-y="30"
     inkscape:window-maximized="0"
     inkscape:current-layer="svg3767" />
  <path
     d="M0 0h24v24H0z"
     fill="none"
     id="path3763" />
  <path
     d="M 1,13 H 3 V 11 H 1 Z m 8,8 h 2 V 19 H 9 Z M 1,17 H 3 V 15 H 1 Z m 2,4 V 19 H 1 c 0,1.1 0.9,2 2,2 z m 18,-4 h 2 V 15 H 21 Z M 5,21 H 7 V 19 H 5 Z m 16,0 c 1.1,0 2,-0.9 2,-2 h -2 z m 0,-8 h 2 v -2 h -2 z m -8,8 h 2 v -2 h -2 z m 4,0 h 2 v -2 h -2 z"
     id="path3765"
     inkscape:connector-curvature="0"
     sodipodi:nodetypes="cccccccccccccccccccccccccccccccccccccccccccaccca" />
  <path
     d="m 22.999999,11 h -2 v 2 h 2 z m -8,-8.0000004 h -2 v 2 h 2 z m 8,4 h -2 V 9 h 2 z m -2,-4 v 2 h 2 c 0,-1.1 -0.9,-2 -2,-2 z M 3,6.9999996 H 0.99999996 V 9 H 3 Z m 15.999999,-4 h -2 v 2 h 2 z M 3,2.9999996 c -1.1,0 -2.00000004,0.9 -2.00000004,2 H 3 Z M 3,11 H 0.99999996 v 2 H 3 Z M 10.999999,2.9999996 H 8.9999997 v 2 H 10.999999 Z M 7,2.9999996 H 5 v 2 h 2 z"
     id="path3765-3"
     inkscape:connector-curvature="0"
     sodipodi:nodetypes="cccccccccccccccccccccccccccccccccccccccccccaccca" />
</svg>
